<svg width="16" height="16" viewBox="0 0 16 16" fill="none" xmlns="http://www.w3.org/2000/svg">
<g clip-path="url(#clip0_4017_13701)">
<rect width="16" height="16" fill="white" fill-opacity="0.01"/>
<path d="M6.99963 1.99915C6.99963 2.26436 6.89428 2.51872 6.70674 2.70625C6.5192 2.89379 6.26485 2.99915 5.99963 2.99915C5.73442 2.99915 5.48006 2.89379 5.29253 2.70625C5.10499 2.51872 4.99963 2.26436 4.99963 1.99915C4.99963 1.73393 5.10499 1.47958 5.29253 1.29204C5.48006 1.1045 5.73442 0.999146 5.99963 0.999146C6.26485 0.999146 6.5192 1.1045 6.70674 1.29204C6.89428 1.47958 6.99963 1.73393 6.99963 1.99915ZM9.99963 1.99915C9.99963 2.26436 9.89428 2.51872 9.70674 2.70625C9.5192 2.89379 9.26485 2.99915 8.99963 2.99915C8.73442 2.99915 8.48006 2.89379 8.29253 2.70625C8.10499 2.51872 7.99963 2.26436 7.99963 1.99915C7.99963 1.73393 8.10499 1.47958 8.29253 1.29204C8.48006 1.1045 8.73442 0.999146 8.99963 0.999146C9.26485 0.999146 9.5192 1.1045 9.70674 1.29204C9.89428 1.47958 9.99963 1.73393 9.99963 1.99915ZM6.99963 4.99915C6.99963 5.26436 6.89428 5.51872 6.70674 5.70625C6.5192 5.89379 6.26485 5.99915 5.99963 5.99915C5.73442 5.99915 5.48006 5.89379 5.29253 5.70625C5.10499 5.51872 4.99963 5.26436 4.99963 4.99915C4.99963 4.73393 5.10499 4.47958 5.29253 4.29204C5.48006 4.1045 5.73442 3.99915 5.99963 3.99915C6.26485 3.99915 6.5192 4.1045 6.70674 4.29204C6.89428 4.47958 6.99963 4.73393 6.99963 4.99915ZM9.99963 4.99915C9.99963 5.26436 9.89428 5.51872 9.70674 5.70625C9.5192 5.89379 9.26485 5.99915 8.99963 5.99915C8.73442 5.99915 8.48006 5.89379 8.29253 5.70625C8.10499 5.51872 7.99963 5.26436 7.99963 4.99915C7.99963 4.73393 8.10499 4.47958 8.29253 4.29204C8.48006 4.1045 8.73442 3.99915 8.99963 3.99915C9.26485 3.99915 9.5192 4.1045 9.70674 4.29204C9.89428 4.47958 9.99963 4.73393 9.99963 4.99915ZM6.99963 7.99915C6.99963 8.26436 6.89428 8.51872 6.70674 8.70625C6.5192 8.89379 6.26485 8.99915 5.99963 8.99915C5.73442 8.99915 5.48006 8.89379 5.29253 8.70625C5.10499 8.51872 4.99963 8.26436 4.99963 7.99915C4.99963 7.73393 5.10499 7.47958 5.29253 7.29204C5.48006 7.1045 5.73442 6.99915 5.99963 6.99915C6.26485 6.99915 6.5192 7.1045 6.70674 7.29204C6.89428 7.47958 6.99963 7.73393 6.99963 7.99915ZM9.99963 7.99915C9.99963 8.26436 9.89428 8.51872 9.70674 8.70625C9.5192 8.89379 9.26485 8.99915 8.99963 8.99915C8.73442 8.99915 8.48006 8.89379 8.29253 8.70625C8.10499 8.51872 7.99963 8.26436 7.99963 7.99915C7.99963 7.73393 8.10499 7.47958 8.29253 7.29204C8.48006 7.1045 8.73442 6.99915 8.99963 6.99915C9.26485 6.99915 9.5192 7.1045 9.70674 7.29204C9.89428 7.47958 9.99963 7.73393 9.99963 7.99915ZM6.99963 10.9991C6.99963 11.2644 6.89428 11.5187 6.70674 11.7063C6.5192 11.8938 6.26485 11.9991 5.99963 11.9991C5.73442 11.9991 5.48006 11.8938 5.29253 11.7063C5.10499 11.5187 4.99963 11.2644 4.99963 10.9991C4.99963 10.7339 5.10499 10.4796 5.29253 10.292C5.48006 10.1045 5.73442 9.99915 5.99963 9.99915C6.26485 9.99915 6.5192 10.1045 6.70674 10.292C6.89428 10.4796 6.99963 10.7339 6.99963 10.9991ZM9.99963 10.9991C9.99963 11.2644 9.89428 11.5187 9.70674 11.7063C9.5192 11.8938 9.26485 11.9991 8.99963 11.9991C8.73442 11.9991 8.48006 11.8938 8.29253 11.7063C8.10499 11.5187 7.99963 11.2644 7.99963 10.9991C7.99963 10.7339 8.10499 10.4796 8.29253 10.292C8.48006 10.1045 8.73442 9.99915 8.99963 9.99915C9.26485 9.99915 9.5192 10.1045 9.70674 10.292C9.89428 10.4796 9.99963 10.7339 9.99963 10.9991ZM6.99963 13.9991C6.99963 14.2644 6.89428 14.5187 6.70674 14.7063C6.5192 14.8938 6.26485 14.9991 5.99963 14.9991C5.73442 14.9991 5.48006 14.8938 5.29253 14.7063C5.10499 14.5187 4.99963 14.2644 4.99963 13.9991C4.99963 13.7339 5.10499 13.4796 5.29253 13.292C5.48006 13.1045 5.73442 12.9991 5.99963 12.9991C6.26485 12.9991 6.5192 13.1045 6.70674 13.292C6.89428 13.4796 6.99963 13.7339 6.99963 13.9991ZM9.99963 13.9991C9.99963 14.2644 9.89428 14.5187 9.70674 14.7063C9.5192 14.8938 9.26485 14.9991 8.99963 14.9991C8.73442 14.9991 8.48006 14.8938 8.29253 14.7063C8.10499 14.5187 7.99963 14.2644 7.99963 13.9991C7.99963 13.7339 8.10499 13.4796 8.29253 13.292C8.48006 13.1045 8.73442 12.9991 8.99963 12.9991C9.26485 12.9991 9.5192 13.1045 9.70674 13.292C9.89428 13.4796 9.99963 13.7339 9.99963 13.9991Z" fill="#6C757D"/>
</g>
<defs>
<clipPath id="clip0_4017_13701">
<rect width="16" height="16" fill="white"/>
</clipPath>
</defs>
</svg>
